<svg width="16" height="16" viewBox="0 0 16 16" fill="none" xmlns="http://www.w3.org/2000/svg">
<path d="M6.79162 1.15091C6.89261 1.43663 6.87598 1.75078 6.74539 2.02425C6.6148 2.29772 6.38094 2.50812 6.09524 2.60919C5.10763 2.95836 4.235 3.57229 3.57272 4.38388C2.91044 5.19547 2.48399 6.17349 2.33998 7.21106C2.19596 8.24863 2.33992 9.30582 2.75613 10.2671C3.17233 11.2284 3.84477 12.0568 4.69994 12.6617C5.55512 13.2667 6.56013 13.6249 7.60514 13.6973C8.65015 13.7697 9.69496 13.5534 10.6254 13.0721C11.5558 12.5909 12.336 11.8631 12.8808 10.9684C13.4255 10.0737 13.7139 9.04642 13.7143 7.9989C13.7143 7.08462 13.5009 6.22367 13.1208 5.46024C13.0539 5.32581 13.0142 5.17954 13.0039 5.02977C12.9936 4.88 13.0129 4.72967 13.0607 4.58736C13.1572 4.29995 13.3639 4.06265 13.6354 3.92767C13.9069 3.79268 14.2209 3.77108 14.5083 3.86759C14.7957 3.96411 15.033 4.17085 15.168 4.44233C15.7168 5.54749 16.0017 6.76497 16 7.9989C16 12.4172 12.4183 15.9989 8 15.9989C3.58171 15.9989 0 12.4172 0 7.9989C0 4.51395 2.22781 1.55243 5.33333 0.454525C5.61906 0.353533 5.9332 0.370161 6.20667 0.500752C6.48014 0.631344 6.69055 0.865205 6.79162 1.15091ZM8.38095 1.15243C8.38082 0.978597 8.42008 0.806995 8.49579 0.650515C8.5715 0.494034 8.68168 0.356744 8.81807 0.248959C8.95445 0.141173 9.11348 0.0656935 9.28322 0.028191C9.45296 -0.00931144 9.62899 -0.00786201 9.79809 0.0324304L9.89561 0.0606208L12.1707 0.819478C12.4492 0.912305 12.6814 1.10878 12.819 1.36817C12.9566 1.62756 12.989 1.92995 12.9097 2.21264C12.8303 2.49534 12.6452 2.73663 12.3927 2.8865C12.1402 3.03637 11.8397 3.0833 11.5535 3.01757L11.4484 2.98786L10.6667 2.72729V7.9989L10.6629 8.14519C10.6337 8.67645 10.4462 9.18683 10.1246 9.6107C9.80302 10.0346 9.36198 10.3525 8.85821 10.5237C8.35445 10.6949 7.81098 10.7115 7.29772 10.5713C6.78445 10.4312 6.32485 10.1407 5.97801 9.73721C5.63117 9.33374 5.41296 8.83573 5.35143 8.30724C5.2899 7.77875 5.38787 7.24394 5.63275 6.77158C5.87762 6.29921 6.2582 5.9109 6.72554 5.65658C7.19288 5.40225 7.72561 5.29354 8.25523 5.34443L8.38095 5.35967V1.15243Z" fill="white"/>
</svg>
