<svg width="22" height="22" viewBox="0 0 22 22" fill="none" xmlns="http://www.w3.org/2000/svg">
<path d="M1.243 5.9158L4.9786 9.6514L3.883 14.0338C3.81638 14.3055 3.85582 14.5925 3.99328 14.8361C4.13074 15.0798 4.3559 15.262 4.62292 15.3455C4.88994 15.4291 5.17876 15.4077 5.4306 15.2858C5.68244 15.1639 5.87836 14.9507 5.9785 14.6894L6.017 14.5673L6.358 13.2H8.5272L9.2125 13.8864L9.383 14.5662C9.44745 14.8249 9.60367 15.0514 9.82259 15.2035C10.0415 15.3557 10.3083 15.4232 10.5732 15.3934L10.6986 15.3714L16.0842 20.757C14.5148 21.576 12.7703 22.0025 11 22C4.9247 22 0 17.0753 0 11C0 9.306 0.3828 7.7033 1.0659 6.27L1.243 5.9158ZM11 -2.68805e-06C17.0753 -2.68805e-06 22 4.9247 22 11C22.0035 13.4121 21.2108 15.758 19.745 17.6737L19.5173 17.9619L20.5777 19.0223C20.775 19.2203 20.8895 19.4859 20.8981 19.7652C20.9066 20.0446 20.8085 20.3167 20.6236 20.5263C20.4388 20.7359 20.1811 20.8673 19.9029 20.8938C19.6247 20.9203 19.3468 20.84 19.1257 20.669L19.0223 20.5777L1.4223 2.9777C1.22502 2.77974 1.11048 2.51412 1.10195 2.23478C1.09342 1.95543 1.19154 1.68331 1.37637 1.47369C1.56121 1.26407 1.81891 1.13266 2.09712 1.10616C2.37534 1.07966 2.65321 1.16004 2.8743 1.331L2.9777 1.4223L4.0381 2.4827C6.00109 0.873688 8.46184 -0.00384598 11 -2.68805e-06ZM15.4 6.6H13.2C12.9083 6.6 12.6285 6.71589 12.4222 6.92218C12.2159 7.12847 12.1 7.40826 12.1 7.7V10.5446L14.3 12.7446V8.8H15.4C15.6917 8.8 15.9715 8.91589 16.1778 9.12218C16.3841 9.32847 16.5 9.60826 16.5 9.9V12.1C16.5 12.3917 16.3841 12.6715 16.1778 12.8778C15.9715 13.0841 15.6917 13.2 15.4 13.2H14.7554L16.6925 15.1371C17.2881 14.8836 17.796 14.4604 18.153 13.9204C18.5099 13.3804 18.7001 12.7473 18.7 12.1V9.9C18.7 9.02478 18.3523 8.18541 17.7335 7.56654C17.1146 6.94767 16.2752 6.6 15.4 6.6ZM8.1675 6.611L10.1596 8.6042L10.0749 8.2665C9.96554 7.82823 9.72392 7.43425 9.38287 7.13806C9.04182 6.84188 8.61677 6.65786 8.1675 6.611Z" fill="url(#paint0_radial_1031_373)"/>
<defs>
<radialGradient id="paint0_radial_1031_373" cx="0" cy="0" r="1" gradientUnits="userSpaceOnUse" gradientTransform="translate(11 11) rotate(90) scale(18.7 18.7)">
<stop stop-color="#770688"/>
<stop offset="1" stop-color="#FF3636"/>
</radialGradient>
</defs>
</svg>
