<svg width="22" height="19" viewBox="0 0 22 19" fill="none" xmlns="http://www.w3.org/2000/svg">
<path d="M14.4509 16.1274C15.1008 16.3728 15.9116 16.5268 16.9254 16.5268C17.9376 16.5268 18.7483 16.3745 19.3966 16.1291C21.9998 15.144 21.9998 12.6762 21.9998 12.6762C21.9998 11.5303 21.0706 10.6028 19.9264 10.6028H13.9211C12.7752 10.6028 11.8477 11.5303 11.8477 12.6762C11.8477 12.6762 11.8477 15.1423 14.4509 16.1291" fill="url(#paint0_linear_1031_402)"/>
<path d="M14.4509 16.1274C15.1008 16.3728 15.9116 16.5268 16.9254 16.5268C17.9376 16.5268 18.7483 16.3745 19.3966 16.1291C21.9998 15.144 21.9998 12.6762 21.9998 12.6762C21.9998 11.5303 21.0706 10.6028 19.9264 10.6028H13.9211C12.7752 10.6028 11.8477 11.5303 11.8477 12.6762C11.8477 12.6762 11.8477 15.1423 14.4509 16.1291" fill="url(#paint1_radial_1031_402)" fill-opacity="0.5"/>
<path d="M13.5407 13.1417C13.5407 12.4683 13.2732 11.8225 12.7971 11.3464C12.321 10.8703 11.6752 10.6028 11.0018 10.6028H2.53888C1.86553 10.6028 1.21975 10.8703 0.743622 11.3464C0.267489 11.8225 0 12.4683 0 13.1417V13.2686C0 13.2686 0 18.2194 6.77035 18.2194C13.2225 18.2194 13.5255 13.7239 13.5407 13.3008V13.1417Z" fill="url(#paint2_linear_1031_402)"/>
<path d="M13.5407 13.1417C13.5407 12.4683 13.2732 11.8225 12.7971 11.3464C12.321 10.8703 11.6752 10.6028 11.0018 10.6028H2.53888C1.86553 10.6028 1.21975 10.8703 0.743622 11.3464C0.267489 11.8225 0 12.4683 0 13.1417V13.2686C0 13.2686 0 18.2194 6.77035 18.2194C13.2225 18.2194 13.5255 13.7239 13.5407 13.3008V13.1417Z" fill="url(#paint3_linear_1031_402)"/>
<path d="M16.9257 8.91022C17.8235 8.91022 18.6845 8.55357 19.3194 7.91872C19.9542 7.28388 20.3109 6.42284 20.3109 5.52504C20.3109 4.62723 19.9542 3.7662 19.3194 3.13136C18.6845 2.49651 17.8235 2.13986 16.9257 2.13986C16.0279 2.13986 15.1669 2.49651 14.532 3.13136C13.8972 3.7662 13.5405 4.62723 13.5405 5.52504C13.5405 6.42284 13.8972 7.28388 14.532 7.91872C15.1669 8.55357 16.0279 8.91022 16.9257 8.91022Z" fill="url(#paint4_linear_1031_402)"/>
<path d="M11.0015 4.67874C11.0015 5.80099 10.5557 6.87728 9.76215 7.67084C8.96859 8.46439 7.8923 8.91021 6.77005 8.91021C5.64779 8.91021 4.5715 8.46439 3.77794 7.67084C2.98439 6.87728 2.53857 5.80099 2.53857 4.67874C2.53857 3.55648 2.98439 2.48019 3.77794 1.68663C4.5715 0.89308 5.64779 0.447266 6.77005 0.447266C7.8923 0.447266 8.96859 0.89308 9.76215 1.68663C10.5557 2.48019 11.0015 3.55648 11.0015 4.67874Z" fill="url(#paint5_linear_1031_402)"/>
<defs>
<linearGradient id="paint0_linear_1031_402" x1="14.2613" y1="11.3898" x2="16.4261" y2="17.3105" gradientUnits="userSpaceOnUse">
<stop offset="0.125" stop-color="#E66676"/>
<stop offset="1" stop-color="#E35B6D" stop-opacity="0.4"/>
</linearGradient>
<radialGradient id="paint1_radial_1031_402" cx="0" cy="0" r="1" gradientUnits="userSpaceOnUse" gradientTransform="translate(10.5613 13.5648) rotate(-7.36814) scale(6.73661 6.98048)">
<stop offset="0.392" stop-color="#181818"/>
<stop offset="1" stop-color="#181818" stop-opacity="0"/>
</radialGradient>
<linearGradient id="paint2_linear_1031_402" x1="3.2193" y1="11.615" x2="5.92406" y2="19.2925" gradientUnits="userSpaceOnUse">
<stop offset="0.125" stop-color="#FF4646"/>
<stop offset="1" stop-color="#770688"/>
</linearGradient>
<linearGradient id="paint3_linear_1031_402" x1="6.77035" y1="9.69556" x2="10.5787" y2="22.3477" gradientUnits="userSpaceOnUse">
<stop stop-color="#FF3636"/>
<stop offset="1" stop-color="#770688"/>
</linearGradient>
<linearGradient id="paint4_linear_1031_402" x1="15.1502" y1="3.04032" x2="18.6014" y2="8.5497" gradientUnits="userSpaceOnUse">
<stop offset="0.125" stop-color="#E66676"/>
<stop offset="1" stop-color="#FF4646"/>
</linearGradient>
<linearGradient id="paint5_linear_1031_402" x1="2.82862" y1="-5.43825" x2="8.86378" y2="8.45998" gradientUnits="userSpaceOnUse">
<stop offset="0.125" stop-color="#770688"/>
<stop offset="1" stop-color="#FF3636"/>
</linearGradient>
</defs>
</svg>
