<svg width="22" height="17" viewBox="0 0 22 17" fill="none" xmlns="http://www.w3.org/2000/svg">
<path fill-rule="evenodd" clip-rule="evenodd" d="M5.44972 3.10896C6.52522 2.0334 7.88969 1.293 9.37764 0.977546C10.8656 0.66209 12.4131 0.785132 13.8325 1.33175C15.2519 1.87837 16.4823 2.82508 17.3743 4.05707C18.2663 5.28907 18.7817 6.75341 18.858 8.27253C19.8448 8.52824 20.7046 9.13456 21.2768 9.97813C21.849 10.8217 22.0944 11.8448 21.9672 12.8562C21.8399 13.8675 21.3487 14.7979 20.5854 15.4734C19.822 16.149 18.8388 16.5234 17.8194 16.5267H5.24327C4.00662 16.5274 2.80956 16.0908 1.86383 15.294C0.918093 14.4972 0.28463 13.3916 0.0754905 12.1728C-0.133649 10.954 0.0950132 9.70046 0.721029 8.63397C1.34705 7.56749 2.33007 6.75677 3.49623 6.34523C3.87443 5.12362 4.54499 4.01274 5.44972 3.10896ZM10.2664 12.5516C10.4629 12.748 10.7294 12.8584 11.0073 12.8584C11.2852 12.8584 11.5518 12.748 11.7483 12.5516L13.8443 10.4555C14.0352 10.2579 14.1409 9.99315 14.1385 9.71836C14.1361 9.44358 14.0259 9.18072 13.8316 8.98641C13.6372 8.7921 13.3744 8.68188 13.0996 8.6795C12.8248 8.67711 12.5601 8.78274 12.3624 8.97365L12.0554 9.28072V5.52254C12.0554 5.24459 11.9449 4.97802 11.7484 4.78148C11.5519 4.58494 11.2853 4.47452 11.0073 4.47452C10.7294 4.47452 10.4628 4.58494 10.2663 4.78148C10.0697 4.97802 9.95933 5.24459 9.95933 5.52254V9.28072L9.65226 8.97365C9.4546 8.78274 9.18987 8.67711 8.91509 8.6795C8.6403 8.68188 8.37745 8.7921 8.18314 8.98641C7.98883 9.18072 7.87861 9.44358 7.87622 9.71836C7.87383 9.99315 7.97947 10.2579 8.17037 10.4555L10.2664 12.5516Z" fill="url(#paint0_linear_1031_400)"/>
<defs>
<linearGradient id="paint0_linear_1031_400" x1="-24.9605" y1="-27.0497" x2="100.55" y2="46.8981" gradientUnits="userSpaceOnUse">
<stop stop-color="#770688"/>
<stop offset="1" stop-color="#FF0000"/>
</linearGradient>
</defs>
</svg>
