<svg width="22" height="22" viewBox="0 0 22 22" fill="none" xmlns="http://www.w3.org/2000/svg">
<path d="M14.4885 0.41196L14.9991 1.98317C15.1574 2.46107 15.4253 2.89531 15.7814 3.25117C16.1376 3.60704 16.572 3.87465 17.05 4.03264L18.6227 4.54317L18.6535 4.55198C18.7747 4.59464 18.8796 4.67385 18.9539 4.7787C19.0281 4.88355 19.068 5.00886 19.068 5.13733C19.068 5.2658 19.0281 5.39111 18.9539 5.49596C18.8796 5.6008 18.7747 5.68002 18.6535 5.72268L17.0823 6.23322C16.604 6.39101 16.1693 6.65854 15.8129 7.01441C15.4565 7.37029 15.1883 7.80462 15.0299 8.28268L14.5193 9.85243C14.4767 9.97361 14.3975 10.0786 14.2926 10.1528C14.1878 10.2271 14.0625 10.2669 13.934 10.2669C13.8055 10.2669 13.6802 10.2271 13.5754 10.1528C13.4705 10.0786 13.3913 9.97361 13.3486 9.85243L12.8381 8.28268C12.6808 7.803 12.4132 7.3669 12.0567 7.00942C11.7003 6.65195 11.2649 6.38308 10.7857 6.22441L9.21301 5.71388C9.09183 5.67122 8.98687 5.592 8.91263 5.48715C8.83838 5.38231 8.79851 5.257 8.79851 5.12853C8.79851 5.00005 8.83838 4.87475 8.91263 4.7699C8.98687 4.66505 9.09183 4.58583 9.21301 4.54317L10.7857 4.03264C11.258 3.87058 11.6863 3.60114 12.0368 3.24551C12.3874 2.88989 12.6506 2.45777 12.8058 1.98317L13.3164 0.413427C13.3587 0.291734 13.4379 0.186241 13.5429 0.111588C13.6479 0.0369356 13.7736 -0.00317383 13.9024 -0.00317383C14.0313 -0.00317383 14.1569 0.0369356 14.262 0.111588C14.367 0.186241 14.4462 0.290267 14.4885 0.41196ZM21.6844 12.0486L20.5621 11.6848C20.2206 11.5712 19.9102 11.3796 19.6556 11.1252C19.4009 10.8708 19.209 10.5606 19.0951 10.2192L18.7312 9.09836C18.7009 9.01171 18.6443 8.93663 18.5694 8.88351C18.4945 8.8304 18.4049 8.80187 18.3131 8.80187C18.2213 8.80187 18.1317 8.8304 18.0568 8.88351C17.9819 8.93663 17.9254 9.01171 17.895 9.09836L17.5283 10.2192C17.4168 10.558 17.2287 10.8664 16.9786 11.1206C16.7285 11.3748 16.4231 11.5679 16.0861 11.6848L14.9638 12.0486C14.8779 12.0796 14.8035 12.1364 14.751 12.2113C14.6985 12.2861 14.6703 12.3753 14.6703 12.4667C14.6703 12.5581 14.6985 12.6473 14.751 12.7222C14.8035 12.797 14.8779 12.8538 14.9638 12.8848L16.0861 13.2501C16.4282 13.3642 16.7388 13.5564 16.9935 13.8116C17.2482 14.0668 17.4398 14.3779 17.5532 14.7201L17.917 15.8409C17.9474 15.9276 18.0039 16.0027 18.0788 16.0558C18.1537 16.1089 18.2433 16.1374 18.3351 16.1374C18.427 16.1374 18.5165 16.1089 18.5914 16.0558C18.6663 16.0027 18.7229 15.9276 18.7532 15.8409L19.1185 14.7201C19.2323 14.3788 19.424 14.0687 19.6784 13.8144C19.9328 13.56 20.2429 13.3683 20.5841 13.2545L21.7064 12.8907C21.7924 12.8596 21.8667 12.8028 21.9193 12.728C21.9718 12.6532 22 12.564 22 12.4726C22 12.3812 21.9718 12.292 21.9193 12.2171C21.8667 12.1423 21.7924 12.0855 21.7064 12.0545L21.6844 12.0486ZM17.2436 17.2669C17.5649 17.4855 17.9434 17.6029 18.3381 17.6043C18.4652 17.6043 18.5904 17.5955 18.7136 17.5779C17.6804 19.0709 16.2698 20.2632 14.6256 21.0334C12.9814 21.8036 11.1624 22.1241 9.35395 21.9623C7.54553 21.8004 5.81235 21.162 4.33104 20.1121C2.84973 19.0622 1.67327 17.6383 0.921536 15.9856C0.169806 14.3329 -0.13031 12.5104 0.0517765 10.7039C0.233863 8.89741 0.89164 7.17149 1.95807 5.70203C3.0245 4.23257 4.46146 3.07212 6.12249 2.33895C7.78352 1.60577 9.60925 1.32608 11.4136 1.52839C11.3256 1.79245 11.1789 2.02718 10.9881 2.2179C10.7974 2.40862 10.5627 2.56999 10.328 2.64334L8.72742 3.15681C8.31665 3.30498 7.96455 3.56905 7.71516 3.92261C7.46576 4.2747 7.33226 4.68548 7.33226 5.12706C7.33226 5.56864 7.46429 5.97942 7.71369 6.33151C7.96309 6.6836 8.31518 6.96381 8.75529 7.11051L10.3133 7.62398C10.5334 7.6988 10.7387 7.81616 11.0028 8.05089C11.1642 8.21227 11.2962 8.40298 11.4283 8.74187L11.6909 9.53408C11.5038 9.54495 11.328 9.627 11.1995 9.7634C11.071 9.89981 10.9996 10.0802 10.9999 10.2676V13.2017C10.9999 13.3962 11.0772 13.5828 11.2147 13.7204C11.3523 13.8579 11.5389 13.9352 11.7334 13.9352C11.9279 13.9352 12.1145 13.8579 12.2521 13.7204C12.3896 13.5828 12.4669 13.3962 12.4669 13.2017V11.1332C12.5432 11.2104 12.6278 11.2852 12.7207 11.3576C12.9261 11.5043 13.1462 11.607 13.3809 11.6657C13.2635 11.9151 13.2049 12.1953 13.2049 12.474C13.2049 12.8701 13.3222 13.253 13.5569 13.5773C13.7931 13.9 14.1159 14.1347 14.512 14.2815L15.6284 14.6482C15.7458 14.6922 15.8632 14.7656 15.9512 14.8536C16.0539 14.9431 16.1126 15.0605 16.1566 15.1778L16.538 16.3544C16.6847 16.7212 16.9194 17.0292 17.2436 17.264M8.79931 8.80055C8.79931 8.60601 8.72202 8.41944 8.58446 8.28187C8.4469 8.14431 8.26032 8.06703 8.06578 8.06703C7.87124 8.06703 7.68466 8.14431 7.5471 8.28187C7.40954 8.41944 7.33226 8.60601 7.33226 8.80055V14.6688C7.33226 14.8633 7.40954 15.0499 7.5471 15.1874C7.68466 15.325 7.87124 15.4023 8.06578 15.4023C8.26032 15.4023 8.4469 15.325 8.58446 15.1874C8.72202 15.0499 8.79931 14.8633 8.79931 14.6688V8.80055ZM4.39816 13.2017C4.5927 13.2017 4.77927 13.1244 4.91684 12.9869C5.0544 12.8493 5.13168 12.6627 5.13168 12.4682V11.0011C5.13168 10.8066 5.0544 10.62 4.91684 10.4824C4.77927 10.3449 4.5927 10.2676 4.39816 10.2676C4.20361 10.2676 4.01704 10.3449 3.87947 10.4824C3.74191 10.62 3.66463 10.8066 3.66463 11.0011V12.4682C3.66463 12.6627 3.74191 12.8493 3.87947 12.9869C4.01704 13.1244 4.20361 13.2017 4.39816 13.2017Z" fill="url(#paint0_linear_1031_410)"/>
<defs>
<linearGradient id="paint0_linear_1031_410" x1="10.2665" y1="-9.53758" x2="11" y2="22.0031" gradientUnits="userSpaceOnUse">
<stop stop-color="#770688"/>
<stop offset="1" stop-color="#FF4646"/>
</linearGradient>
</defs>
</svg>
